<svg width="16" height="16" viewBox="0 0 16 16" fill="none" xmlns="http://www.w3.org/2000/svg">
<g clip-path="url(#clip0_702_5415)">
<path d="M16 0H0V16H16V0Z" fill="white"/>
<path d="M7.18426 4.68722C7.55026 4.13425 8.36559 4.13425 8.73162 4.68722L9.81263 6.32049C10.2182 6.93319 9.77641 7.74869 9.03898 7.74869H6.8769C6.13945 7.74869 5.69769 6.93319 6.10322 6.32049L7.18426 4.68722Z" fill="#4653F6"/>
<path d="M4.38424 8.91761C4.75024 8.36462 5.56558 8.36462 5.93159 8.91761L7.01262 10.5509C7.41817 11.1636 6.9764 11.9791 6.23895 11.9791H4.07688C3.33944 11.9791 2.89767 11.1636 3.3032 10.5509L4.38424 8.91761Z" fill="#4653F6"/>
<path d="M9.98417 8.91761C10.3502 8.36462 11.1656 8.36462 11.5315 8.91761L12.6126 10.5509C13.0181 11.1636 12.5763 11.9791 11.8389 11.9791H9.6768C8.93937 11.9791 8.4976 11.1636 8.90316 10.5509L9.98417 8.91761Z" fill="#757CF9"/>
</g>
<defs>
<clipPath id="clip0_702_5415">
<rect width="16" height="16" rx="4" fill="white"/>
</clipPath>
</defs>
</svg>
