<svg xmlns="http://www.w3.org/2000/svg" width="54" height="38" fill="none" viewBox="0 0 54 38"><path fill="#4653F6" d="M23.7511 4.45422C25.3484 2.25568 28.626 2.25569 30.2233 4.45422L35.8665 12.2217C37.7875 14.8658 35.8987 18.5728 32.6305 18.5728H21.344C18.0757 18.5728 16.1869 14.8658 18.1079 12.2217L23.7511 4.45422Z"/><path fill="#4653F6" d="M10.2575 23.027C11.8547 20.8284 15.1324 20.8284 16.7296 23.027L22.3729 30.7944C24.2939 33.4385 22.4051 37.1455 19.1368 37.1455H7.85032C4.58207 37.1455 2.69322 33.4385 4.61421 30.7944L10.2575 23.027Z"/><path fill="#757CF9" d="M37.2443 23.027C38.8416 20.8284 42.1192 20.8284 43.7165 23.027L49.3597 30.7944C51.2807 33.4385 49.3919 37.1455 46.1236 37.1455H34.8371C31.5689 37.1455 29.68 33.4385 31.601 30.7944L37.2443 23.027Z"/></svg>