<svg width="203" height="67" viewBox="0 0 203 67" fill="none" xmlns="http://www.w3.org/2000/svg">
<path d="M98.248 26.862C98.152 27.018 98.05 27.132 97.942 27.204C97.834 27.264 97.696 27.294 97.528 27.294C97.336 27.294 97.12 27.228 96.88 27.096C96.652 26.964 96.37 26.82 96.034 26.664C95.71 26.508 95.326 26.364 94.882 26.232C94.438 26.1 93.91 26.034 93.298 26.034C92.794 26.034 92.332 26.1 91.912 26.232C91.504 26.352 91.156 26.526 90.868 26.754C90.58 26.97 90.358 27.234 90.202 27.546C90.046 27.846 89.968 28.17 89.968 28.518C89.968 28.974 90.1 29.352 90.364 29.652C90.64 29.952 90.994 30.21 91.426 30.426C91.87 30.642 92.368 30.84 92.92 31.02C93.484 31.188 94.054 31.368 94.63 31.56C95.218 31.752 95.788 31.974 96.34 32.226C96.904 32.466 97.402 32.772 97.834 33.144C98.278 33.504 98.632 33.942 98.896 34.458C99.172 34.974 99.31 35.604 99.31 36.348C99.31 37.2 99.154 37.992 98.842 38.724C98.542 39.444 98.092 40.068 97.492 40.596C96.904 41.124 96.172 41.538 95.296 41.838C94.42 42.138 93.418 42.288 92.29 42.288C91.03 42.288 89.866 42.078 88.798 41.658C87.73 41.238 86.836 40.704 86.116 40.056L86.944 38.706C87.04 38.538 87.16 38.412 87.304 38.328C87.448 38.232 87.64 38.184 87.88 38.184C88.108 38.184 88.342 38.268 88.582 38.436C88.822 38.604 89.11 38.79 89.446 38.994C89.782 39.186 90.19 39.366 90.67 39.534C91.15 39.69 91.75 39.768 92.47 39.768C93.07 39.768 93.592 39.696 94.036 39.552C94.48 39.396 94.846 39.192 95.134 38.94C95.434 38.676 95.656 38.376 95.8 38.04C95.944 37.704 96.016 37.35 96.016 36.978C96.016 36.498 95.878 36.102 95.602 35.79C95.338 35.466 94.984 35.19 94.54 34.962C94.108 34.734 93.61 34.536 93.046 34.368C92.482 34.2 91.906 34.02 91.318 33.828C90.73 33.636 90.154 33.414 89.59 33.162C89.026 32.91 88.522 32.592 88.078 32.208C87.646 31.824 87.292 31.356 87.016 30.804C86.752 30.252 86.62 29.58 86.62 28.788C86.62 28.08 86.764 27.402 87.052 26.754C87.352 26.106 87.778 25.536 88.33 25.044C88.894 24.552 89.584 24.162 90.4 23.874C91.228 23.574 92.17 23.424 93.226 23.424C94.438 23.424 95.53 23.616 96.502 24C97.486 24.384 98.326 24.912 99.022 25.584L98.248 26.862ZM115.927 27.132C115.819 27.264 115.711 27.372 115.603 27.456C115.507 27.528 115.363 27.564 115.171 27.564C114.979 27.564 114.775 27.492 114.559 27.348C114.355 27.192 114.091 27.03 113.767 26.862C113.455 26.682 113.071 26.52 112.615 26.376C112.171 26.22 111.619 26.142 110.959 26.142C110.095 26.142 109.333 26.298 108.673 26.61C108.013 26.922 107.461 27.366 107.017 27.942C106.585 28.518 106.255 29.22 106.027 30.048C105.799 30.876 105.685 31.806 105.685 32.838C105.685 33.906 105.805 34.86 106.045 35.7C106.285 36.528 106.627 37.23 107.071 37.806C107.515 38.37 108.055 38.802 108.691 39.102C109.327 39.39 110.035 39.534 110.815 39.534C111.571 39.534 112.195 39.444 112.687 39.264C113.179 39.072 113.587 38.868 113.911 38.652C114.235 38.436 114.505 38.238 114.721 38.058C114.937 37.866 115.159 37.77 115.387 37.77C115.675 37.77 115.897 37.878 116.053 38.094L117.061 39.39C116.641 39.906 116.167 40.344 115.639 40.704C115.123 41.064 114.571 41.358 113.983 41.586C113.395 41.814 112.777 41.982 112.129 42.09C111.493 42.198 110.845 42.252 110.185 42.252C109.045 42.252 107.977 42.042 106.981 41.622C105.997 41.202 105.139 40.59 104.407 39.786C103.687 38.982 103.117 37.998 102.697 36.834C102.277 35.658 102.067 34.326 102.067 32.838C102.067 31.482 102.253 30.228 102.625 29.076C103.009 27.924 103.567 26.934 104.299 26.106C105.043 25.266 105.955 24.612 107.035 24.144C108.115 23.664 109.351 23.424 110.743 23.424C112.051 23.424 113.203 23.634 114.199 24.054C115.195 24.474 116.083 25.068 116.863 25.836L115.927 27.132ZM130.165 33.882C128.737 33.93 127.525 34.044 126.529 34.224C125.533 34.392 124.723 34.62 124.099 34.908C123.475 35.196 123.025 35.538 122.749 35.934C122.473 36.318 122.335 36.75 122.335 37.23C122.335 37.686 122.407 38.082 122.551 38.418C122.707 38.742 122.911 39.012 123.163 39.228C123.427 39.432 123.733 39.582 124.081 39.678C124.429 39.774 124.807 39.822 125.215 39.822C125.755 39.822 126.247 39.768 126.691 39.66C127.147 39.552 127.573 39.402 127.969 39.21C128.365 39.006 128.743 38.76 129.103 38.472C129.463 38.184 129.817 37.854 130.165 37.482V33.882ZM119.869 26.268C120.889 25.296 121.993 24.57 123.181 24.09C124.381 23.61 125.695 23.37 127.123 23.37C128.167 23.37 129.091 23.544 129.895 23.892C130.699 24.228 131.377 24.702 131.929 25.314C132.481 25.926 132.895 26.658 133.171 27.51C133.459 28.362 133.603 29.304 133.603 30.336V42H132.037C131.689 42 131.425 41.946 131.245 41.838C131.065 41.718 130.921 41.502 130.813 41.19L130.435 39.588C129.967 40.02 129.505 40.404 129.049 40.74C128.593 41.064 128.113 41.346 127.609 41.586C127.117 41.814 126.589 41.988 126.025 42.108C125.461 42.228 124.837 42.288 124.153 42.288C123.433 42.288 122.755 42.192 122.119 42C121.495 41.796 120.949 41.49 120.481 41.082C120.013 40.674 119.641 40.164 119.365 39.552C119.101 38.94 118.969 38.226 118.969 37.41C118.969 36.69 119.161 36 119.545 35.34C119.941 34.668 120.577 34.068 121.453 33.54C122.341 33.012 123.493 32.58 124.909 32.244C126.337 31.908 128.089 31.716 130.165 31.668V30.336C130.165 28.956 129.871 27.924 129.283 27.24C128.695 26.556 127.831 26.214 126.691 26.214C125.923 26.214 125.275 26.31 124.747 26.502C124.231 26.694 123.781 26.91 123.397 27.15C123.025 27.378 122.695 27.588 122.407 27.78C122.131 27.972 121.843 28.068 121.543 28.068C121.303 28.068 121.093 28.002 120.913 27.87C120.745 27.738 120.607 27.582 120.499 27.402L119.869 26.268ZM143.78 42.288C142.304 42.288 141.164 41.874 140.36 41.046C139.568 40.218 139.172 39.036 139.172 37.5V26.556H137.048C136.844 26.556 136.67 26.496 136.526 26.376C136.394 26.244 136.328 26.052 136.328 25.8V24.378L139.298 23.964L140.09 18.51C140.138 18.306 140.228 18.15 140.36 18.042C140.504 17.922 140.684 17.862 140.9 17.862H142.682V24H151.034L151.844 18.51C151.88 18.306 151.964 18.15 152.096 18.042C152.24 17.922 152.42 17.862 152.636 17.862H154.436V24H159.62V26.556H154.436V37.266C154.436 37.986 154.61 38.526 154.958 38.886C155.306 39.234 155.762 39.408 156.326 39.408C156.65 39.408 156.926 39.366 157.154 39.282C157.394 39.198 157.598 39.108 157.766 39.012C157.934 38.904 158.078 38.808 158.198 38.724C158.318 38.64 158.426 38.598 158.522 38.598C158.63 38.598 158.72 38.628 158.792 38.688C158.864 38.736 158.936 38.82 159.008 38.94L160.052 40.632C159.476 41.16 158.786 41.568 157.982 41.856C157.19 42.144 156.368 42.288 155.516 42.288C154.04 42.288 152.9 41.874 152.096 41.046C151.304 40.218 150.908 39.036 150.908 37.5V26.556H142.682V37.266C142.682 37.986 142.856 38.526 143.204 38.886C143.564 39.234 144.02 39.408 144.572 39.408C144.896 39.408 145.172 39.366 145.4 39.282C145.64 39.198 145.844 39.108 146.012 39.012C146.18 38.904 146.324 38.808 146.444 38.724C146.564 38.64 146.672 38.598 146.768 38.598C146.888 38.598 146.978 38.628 147.038 38.688C147.11 38.736 147.182 38.82 147.254 38.94L148.298 40.632C147.722 41.16 147.038 41.568 146.246 41.856C145.454 42.144 144.632 42.288 143.78 42.288ZM166.153 27.222C166.741 26.022 167.449 25.08 168.277 24.396C169.105 23.712 170.101 23.37 171.265 23.37C171.661 23.37 172.033 23.418 172.381 23.514C172.741 23.598 173.053 23.73 173.317 23.91L173.083 26.556C172.999 26.88 172.801 27.042 172.489 27.042C172.321 27.042 172.069 27.012 171.733 26.952C171.397 26.88 171.037 26.844 170.653 26.844C170.089 26.844 169.591 26.928 169.159 27.096C168.727 27.252 168.337 27.492 167.989 27.816C167.653 28.128 167.353 28.518 167.089 28.986C166.825 29.442 166.579 29.964 166.351 30.552V42H162.841V23.712H164.857C165.241 23.712 165.499 23.784 165.631 23.928C165.775 24.06 165.877 24.3 165.937 24.648L166.153 27.222Z" fill="#212121"/>
<path d="M53.751 13.4542C55.3483 11.2557 58.6259 11.2557 60.2232 13.4542L65.8665 21.2217C67.7875 23.8658 65.8986 27.5728 62.6304 27.5728H51.3439C48.0757 27.5728 46.1868 23.8658 48.1078 21.2217L53.751 13.4542Z" fill="#4653F6"/>
<path d="M40.2575 32.027C41.8547 29.8284 45.1324 29.8284 46.7296 32.027L52.3729 39.7944C54.2939 42.4385 52.4051 46.1455 49.1368 46.1455H37.8503C34.5821 46.1455 32.6932 42.4385 34.6142 39.7944L40.2575 32.027Z" fill="#4653F6"/>
<path d="M67.2443 32.027C68.8416 29.8284 72.1192 29.8284 73.7165 32.027L79.3598 39.7944C81.2808 42.4385 79.3919 46.1455 76.1237 46.1455H64.8372C61.5689 46.1455 59.6801 42.4385 61.6011 39.7944L67.2443 32.027Z" fill="#757CF9"/>
</svg>
